<mxfile host="65bd71144e">
    <diagram id="zfkohsWXa4vvoz7Sto4K" name="Page-1">
        <mxGraphModel dx="1689" dy="1885" grid="1" gridSize="10" guides="1" tooltips="1" connect="1" arrows="1" fold="1" page="1" pageScale="1" pageWidth="850" pageHeight="1100" math="0" shadow="0">
            <root>
                <mxCell id="0"/>
                <mxCell id="1" parent="0"/>
                <mxCell id="7" style="edgeStyle=orthogonalEdgeStyle;html=1;exitX=1;exitY=0.5;exitDx=0;exitDy=0;entryX=0;entryY=0.5;entryDx=0;entryDy=0;fontFamily=Courier New;fontSize=15;curved=1;" parent="1" source="2" target="3" edge="1">
                    <mxGeometry relative="1" as="geometry"/>
                </mxCell>
                <mxCell id="8" style="edgeStyle=orthogonalEdgeStyle;html=1;exitX=1;exitY=0.5;exitDx=0;exitDy=0;entryX=0.011;entryY=0.617;entryDx=0;entryDy=0;entryPerimeter=0;fontFamily=Courier New;fontSize=15;curved=1;" parent="1" source="2" target="6" edge="1">
                    <mxGeometry relative="1" as="geometry">
                        <Array as="points">
                            <mxPoint x="45" y="410"/>
                            <mxPoint x="467" y="410"/>
                        </Array>
                    </mxGeometry>
                </mxCell>
                <mxCell id="2" value="&lt;font style=&quot;font-size: 15px;&quot; face=&quot;Courier New&quot;&gt;flake.nix&lt;/font&gt;" style="rounded=1;whiteSpace=wrap;html=1;" parent="1" vertex="1">
                    <mxGeometry x="-110" y="330" width="155" height="60" as="geometry"/>
                </mxCell>
                <mxCell id="15" value="import" style="edgeStyle=none;html=1;fontFamily=Courier New;fontSize=14;fontColor=#FFFFFF;" parent="1" source="3" target="14" edge="1">
                    <mxGeometry relative="1" as="geometry"/>
                </mxCell>
                <mxCell id="3" value="&lt;font face=&quot;Courier New&quot;&gt;&lt;span style=&quot;font-size: 15px;&quot;&gt;nixosModules.regolith&lt;/span&gt;&lt;/font&gt;" style="rounded=1;whiteSpace=wrap;html=1;" parent="1" vertex="1">
                    <mxGeometry x="190" y="210" width="200" height="60" as="geometry"/>
                </mxCell>
                <mxCell id="13" value="A devlopment shell with these applications" style="edgeStyle=none;html=1;fontFamily=Courier New;fontSize=14;fontColor=#FFFFFF;" parent="1" source="6" target="12" edge="1">
                    <mxGeometry relative="1" as="geometry"/>
                </mxCell>
                <mxCell id="6" value="&lt;font face=&quot;Courier New&quot;&gt;&lt;span style=&quot;font-size: 15px;&quot;&gt;devShell&lt;/span&gt;&lt;/font&gt;" style="rounded=1;whiteSpace=wrap;html=1;" parent="1" vertex="1">
                    <mxGeometry x="465" y="420" width="200" height="60" as="geometry"/>
                </mxCell>
                <mxCell id="10" value="input" style="edgeStyle=none;html=1;exitX=1;exitY=0.5;exitDx=0;exitDy=0;entryX=0;entryY=0.5;entryDx=0;entryDy=0;fontFamily=Courier New;fontSize=15;" parent="1" edge="1">
                    <mxGeometry relative="1" as="geometry">
                        <mxPoint x="-280" y="360" as="sourcePoint"/>
                        <mxPoint x="-110" y="360" as="targetPoint"/>
                    </mxGeometry>
                </mxCell>
                <mxCell id="9" value="nixos/nixpkgs&lt;br&gt;24.05" style="rounded=1;whiteSpace=wrap;html=1;fontFamily=Courier New;fontSize=15;" parent="1" vertex="1">
                    <mxGeometry x="-480" y="330" width="200" height="60" as="geometry"/>
                </mxCell>
                <mxCell id="12" value="&lt;p id=&quot;docs-internal-guid-4b74a672-7fff-8bf4-ea94-6772864651a3&quot; style=&quot;line-height: 1.38; margin-top: 0pt; margin-bottom: 0pt; font-size: 14px;&quot; dir=&quot;ltr&quot;&gt;&lt;span style=&quot;font-variant-numeric: normal; font-variant-east-asian: normal; font-variant-alternates: normal; font-variant-position: normal; vertical-align: baseline;&quot;&gt;&lt;font style=&quot;font-size: 14px;&quot; color=&quot;#ffffff&quot;&gt;i3status-rs&lt;/font&gt;&lt;/span&gt;&lt;/p&gt;&lt;p style=&quot;line-height: 1.38; margin-top: 0pt; margin-bottom: 0pt; font-size: 14px;&quot; dir=&quot;ltr&quot;&gt;&lt;span style=&quot;font-variant-numeric: normal; font-variant-east-asian: normal; font-variant-alternates: normal; font-variant-position: normal; vertical-align: baseline;&quot;&gt;&lt;font style=&quot;font-size: 14px;&quot; color=&quot;#ffffff&quot;&gt;i3-swap-focus&lt;/font&gt;&lt;/span&gt;&lt;/p&gt;&lt;p style=&quot;line-height: 1.38; margin-top: 0pt; margin-bottom: 0pt; font-size: 14px;&quot; dir=&quot;ltr&quot;&gt;&lt;span style=&quot;font-variant-numeric: normal; font-variant-east-asian: normal; font-variant-alternates: normal; font-variant-position: normal; vertical-align: baseline;&quot;&gt;&lt;font style=&quot;font-size: 14px;&quot; color=&quot;#ffffff&quot;&gt;i3xrocks&lt;/font&gt;&lt;/span&gt;&lt;/p&gt;&lt;p style=&quot;line-height: 1.38; margin-top: 0pt; margin-bottom: 0pt; font-size: 14px;&quot; dir=&quot;ltr&quot;&gt;&lt;span style=&quot;font-variant-numeric: normal; font-variant-east-asian: normal; font-variant-alternates: normal; font-variant-position: normal; vertical-align: baseline;&quot;&gt;&lt;font style=&quot;font-size: 14px;&quot; color=&quot;#ffffff&quot;&gt;ilia&lt;/font&gt;&lt;/span&gt;&lt;/p&gt;&lt;p style=&quot;line-height: 1.38; margin-top: 0pt; margin-bottom: 0pt; font-size: 14px;&quot; dir=&quot;ltr&quot;&gt;&lt;span style=&quot;font-variant-numeric: normal; font-variant-east-asian: normal; font-variant-alternates: normal; font-variant-position: normal; vertical-align: baseline;&quot;&gt;&lt;font style=&quot;font-size: 14px;&quot; color=&quot;#ffffff&quot;&gt;libtrawldb&lt;/font&gt;&lt;/span&gt;&lt;/p&gt;&lt;p style=&quot;line-height: 1.38; margin-top: 0pt; margin-bottom: 0pt; font-size: 14px;&quot; dir=&quot;ltr&quot;&gt;&lt;span style=&quot;font-variant-numeric: normal; font-variant-east-asian: normal; font-variant-alternates: normal; font-variant-position: normal; vertical-align: baseline;&quot;&gt;&lt;font style=&quot;font-size: 14px;&quot; color=&quot;#ffffff&quot;&gt;regolith-displayd&lt;/font&gt;&lt;/span&gt;&lt;/p&gt;&lt;p style=&quot;line-height: 1.38; margin-top: 0pt; margin-bottom: 0pt; font-size: 14px;&quot; dir=&quot;ltr&quot;&gt;&lt;span style=&quot;font-variant-numeric: normal; font-variant-east-asian: normal; font-variant-alternates: normal; font-variant-position: normal; vertical-align: baseline;&quot;&gt;&lt;font style=&quot;font-size: 14px;&quot; color=&quot;#ffffff&quot;&gt;regolith-ftue&lt;/font&gt;&lt;/span&gt;&lt;/p&gt;&lt;p style=&quot;line-height: 1.38; margin-top: 0pt; margin-bottom: 0pt; font-size: 14px;&quot; dir=&quot;ltr&quot;&gt;&lt;span style=&quot;font-variant-numeric: normal; font-variant-east-asian: normal; font-variant-alternates: normal; font-variant-position: normal; vertical-align: baseline;&quot;&gt;&lt;font style=&quot;font-size: 14px;&quot; color=&quot;#ffffff&quot;&gt;regolith-inputd&lt;/font&gt;&lt;/span&gt;&lt;/p&gt;&lt;p style=&quot;line-height: 1.38; margin-top: 0pt; margin-bottom: 0pt; font-size: 14px;&quot; dir=&quot;ltr&quot;&gt;&lt;span style=&quot;font-variant-numeric: normal; font-variant-east-asian: normal; font-variant-alternates: normal; font-variant-position: normal; vertical-align: baseline;&quot;&gt;&lt;font style=&quot;font-size: 14px;&quot; color=&quot;#ffffff&quot;&gt;regolith-look-default&lt;/font&gt;&lt;/span&gt;&lt;/p&gt;&lt;p style=&quot;line-height: 1.38; margin-top: 0pt; margin-bottom: 0pt; font-size: 14px;&quot; dir=&quot;ltr&quot;&gt;&lt;span style=&quot;font-variant-numeric: normal; font-variant-east-asian: normal; font-variant-alternates: normal; font-variant-position: normal; vertical-align: baseline;&quot;&gt;&lt;font style=&quot;font-size: 14px;&quot; color=&quot;#ffffff&quot;&gt;regolith-look-extra&lt;/font&gt;&lt;/span&gt;&lt;/p&gt;&lt;p style=&quot;line-height: 1.38; margin-top: 0pt; margin-bottom: 0pt; font-size: 14px;&quot; dir=&quot;ltr&quot;&gt;&lt;span style=&quot;font-variant-numeric: normal; font-variant-east-asian: normal; font-variant-alternates: normal; font-variant-position: normal; vertical-align: baseline;&quot;&gt;&lt;font style=&quot;font-size: 14px;&quot; color=&quot;#ffffff&quot;&gt;regolith.nix&lt;/font&gt;&lt;/span&gt;&lt;/p&gt;&lt;p style=&quot;line-height: 1.38; margin-top: 0pt; margin-bottom: 0pt; font-size: 14px;&quot; dir=&quot;ltr&quot;&gt;&lt;span style=&quot;font-variant-numeric: normal; font-variant-east-asian: normal; font-variant-alternates: normal; font-variant-position: normal; vertical-align: baseline;&quot;&gt;&lt;font style=&quot;font-size: 14px;&quot; color=&quot;#ffffff&quot;&gt;regolith-powerd&lt;/font&gt;&lt;/span&gt;&lt;/p&gt;&lt;p style=&quot;line-height: 1.38; margin-top: 0pt; margin-bottom: 0pt; font-size: 14px;&quot; dir=&quot;ltr&quot;&gt;&lt;span style=&quot;font-variant-numeric: normal; font-variant-east-asian: normal; font-variant-alternates: normal; font-variant-position: normal; vertical-align: baseline;&quot;&gt;&lt;font style=&quot;font-size: 14px;&quot; color=&quot;#ffffff&quot;&gt;regolith-session&lt;/font&gt;&lt;/span&gt;&lt;/p&gt;&lt;p style=&quot;line-height: 1.38; margin-top: 0pt; margin-bottom: 0pt; font-size: 14px;&quot; dir=&quot;ltr&quot;&gt;&lt;span style=&quot;font-variant-numeric: normal; font-variant-east-asian: normal; font-variant-alternates: normal; font-variant-position: normal; vertical-align: baseline;&quot;&gt;&lt;font style=&quot;font-size: 14px;&quot; color=&quot;#ffffff&quot;&gt;regolith-wm-config&lt;/font&gt;&lt;/span&gt;&lt;/p&gt;&lt;p style=&quot;line-height: 1.38; margin-top: 0pt; margin-bottom: 0pt; font-size: 14px;&quot; dir=&quot;ltr&quot;&gt;&lt;span style=&quot;font-variant-numeric: normal; font-variant-east-asian: normal; font-variant-alternates: normal; font-variant-position: normal; vertical-align: baseline;&quot;&gt;&lt;font style=&quot;font-size: 14px;&quot; color=&quot;#ffffff&quot;&gt;remontoire&lt;/font&gt;&lt;/span&gt;&lt;/p&gt;&lt;p style=&quot;line-height: 1.38; margin-top: 0pt; margin-bottom: 0pt; font-size: 14px;&quot; dir=&quot;ltr&quot;&gt;&lt;span style=&quot;font-variant-numeric: normal; font-variant-east-asian: normal; font-variant-alternates: normal; font-variant-position: normal; vertical-align: baseline;&quot;&gt;&lt;font style=&quot;font-size: 14px;&quot; color=&quot;#ffffff&quot;&gt;rofication&lt;/font&gt;&lt;/span&gt;&lt;/p&gt;&lt;p style=&quot;line-height: 1.38; margin-top: 0pt; margin-bottom: 0pt; font-size: 14px;&quot; dir=&quot;ltr&quot;&gt;&lt;span style=&quot;font-variant-numeric: normal; font-variant-east-asian: normal; font-variant-alternates: normal; font-variant-position: normal; vertical-align: baseline;&quot;&gt;&lt;font style=&quot;font-size: 14px;&quot; color=&quot;#ffffff&quot;&gt;sway-regolith&lt;/font&gt;&lt;/span&gt;&lt;/p&gt;&lt;p style=&quot;line-height: 1.38; margin-top: 0pt; margin-bottom: 0pt; font-size: 14px;&quot; dir=&quot;ltr&quot;&gt;&lt;span style=&quot;font-variant-numeric: normal; font-variant-east-asian: normal; font-variant-alternates: normal; font-variant-position: normal; vertical-align: baseline;&quot;&gt;&lt;font style=&quot;font-size: 14px;&quot; color=&quot;#ffffff&quot;&gt;trawl&lt;/font&gt;&lt;/span&gt;&lt;/p&gt;&lt;p style=&quot;line-height: 1.38; margin-top: 0pt; margin-bottom: 0pt; font-size: 14px;&quot; dir=&quot;ltr&quot;&gt;&lt;span style=&quot;font-variant-numeric: normal; font-variant-east-asian: normal; font-variant-alternates: normal; font-variant-position: normal; vertical-align: baseline;&quot;&gt;&lt;font style=&quot;font-size: 14px;&quot; color=&quot;#ffffff&quot;&gt;xrescat&lt;/font&gt;&lt;/span&gt;&lt;/p&gt;" style="rounded=1;whiteSpace=wrap;html=1;fontFamily=Courier New;fontSize=15;align=left;spacingTop=1;spacingLeft=20;labelBackgroundColor=default;labelBorderColor=none;" parent="1" vertex="1">
                    <mxGeometry x="425" y="630" width="280" height="420" as="geometry"/>
                </mxCell>
                <mxCell id="40" value="" style="edgeStyle=orthogonalEdgeStyle;curved=1;html=1;fontFamily=Courier New;fontSize=14;fontColor=#FFFFFF;" parent="1" source="14" target="39" edge="1">
                    <mxGeometry relative="1" as="geometry"/>
                </mxCell>
                <mxCell id="41" value="&lt;font style=&quot;font-size: 19px;&quot;&gt;regolith.enable&lt;/font&gt;" style="edgeLabel;html=1;align=center;verticalAlign=middle;resizable=0;points=[];fontSize=19;fontFamily=Courier New;fontColor=#FFFFFF;fontStyle=1" parent="40" vertex="1" connectable="0">
                    <mxGeometry x="-0.1905" y="3" relative="1" as="geometry">
                        <mxPoint x="61" as="offset"/>
                    </mxGeometry>
                </mxCell>
                <mxCell id="14" value="&lt;font face=&quot;Courier New&quot;&gt;&lt;span style=&quot;font-size: 15px;&quot;&gt;./regolith.nix&lt;/span&gt;&lt;/font&gt;" style="rounded=1;whiteSpace=wrap;html=1;" parent="1" vertex="1">
                    <mxGeometry x="570" y="210" width="200" height="60" as="geometry"/>
                </mxCell>
                <mxCell id="18" value="&lt;font face=&quot;Courier New&quot;&gt;&lt;span style=&quot;font-size: 15px;&quot;&gt;./powerd.nix&lt;/span&gt;&lt;/font&gt;" style="rounded=1;whiteSpace=wrap;html=1;" parent="1" vertex="1">
                    <mxGeometry x="370" y="-310" width="200" height="60" as="geometry"/>
                </mxCell>
                <mxCell id="22" value="&lt;font face=&quot;Courier New&quot;&gt;&lt;span style=&quot;font-size: 15px;&quot;&gt;./displayd.nix&lt;/span&gt;&lt;/font&gt;" style="rounded=1;whiteSpace=wrap;html=1;" parent="1" vertex="1">
                    <mxGeometry x="610" y="-310" width="200" height="60" as="geometry"/>
                </mxCell>
                <mxCell id="23" value="&lt;font face=&quot;Courier New&quot;&gt;&lt;span style=&quot;font-size: 15px;&quot;&gt;./packages.nix&lt;/span&gt;&lt;/font&gt;" style="rounded=1;whiteSpace=wrap;html=1;" parent="1" vertex="1">
                    <mxGeometry x="770" y="-190" width="200" height="60" as="geometry"/>
                </mxCell>
                <mxCell id="24" value="&lt;span style=&quot;font-family: &amp;quot;Courier New&amp;quot;; font-size: 15px;&quot;&gt;./sway-regolith.nix&lt;/span&gt;" style="rounded=1;whiteSpace=wrap;html=1;" parent="1" vertex="1">
                    <mxGeometry x="530" y="-190" width="200" height="60" as="geometry"/>
                </mxCell>
                <mxCell id="25" value="&lt;span style=&quot;color: rgb(240, 240, 240); font-family: &amp;quot;Courier New&amp;quot;; font-size: 15px; font-style: normal; font-variant-ligatures: normal; font-variant-caps: normal; font-weight: 400; letter-spacing: normal; orphans: 2; text-align: center; text-indent: 0px; text-transform: none; widows: 2; word-spacing: 0px; -webkit-text-stroke-width: 0px; background-color: rgb(42, 37, 47); text-decoration-thickness: initial; text-decoration-style: initial; text-decoration-color: initial; float: none; display: inline !important;&quot;&gt;./session.nix&lt;/span&gt;" style="rounded=1;whiteSpace=wrap;html=1;" parent="1" vertex="1">
                    <mxGeometry x="280" y="-190" width="200" height="60" as="geometry"/>
                </mxCell>
                <mxCell id="26" value="&lt;font face=&quot;Courier New&quot;&gt;&lt;span style=&quot;font-size: 15px;&quot;&gt;./trawl.nix&lt;/span&gt;&lt;/font&gt;" style="rounded=1;whiteSpace=wrap;html=1;" parent="1" vertex="1">
                    <mxGeometry x="600" y="-430" width="200" height="60" as="geometry"/>
                </mxCell>
                <mxCell id="37" value="&lt;font face=&quot;Courier New&quot;&gt;&lt;span style=&quot;font-size: 15px;&quot;&gt;./inputd.nix&lt;/span&gt;&lt;/font&gt;" style="rounded=1;whiteSpace=wrap;html=1;" parent="1" vertex="1">
                    <mxGeometry x="870" y="-310" width="200" height="60" as="geometry"/>
                </mxCell>
                <mxCell id="39" value="regolith&amp;nbsp;" style="shape=process;whiteSpace=wrap;html=1;backgroundOutline=1;rounded=1;fontFamily=Courier New;fontSize=20;fontStyle=1" parent="1" vertex="1">
                    <mxGeometry x="1310" y="180" width="260" height="120" as="geometry"/>
                </mxCell>
                <mxCell id="32" value="regolith.powerd.enable" style="edgeStyle=orthogonalEdgeStyle;html=1;exitX=0.5;exitY=1;exitDx=0;exitDy=0;entryX=0.5;entryY=0;entryDx=0;entryDy=0;fontFamily=Courier New;fontSize=14;fontColor=#FFFFFF;curved=1;fontStyle=1" parent="1" source="18" target="14" edge="1">
                    <mxGeometry x="-0.1212" y="20" relative="1" as="geometry">
                        <Array as="points">
                            <mxPoint x="500" y="-250"/>
                            <mxPoint x="500" y="-20"/>
                            <mxPoint x="670" y="-20"/>
                        </Array>
                        <mxPoint as="offset"/>
                    </mxGeometry>
                </mxCell>
                <mxCell id="34" value="regolith.displayd.enable" style="edgeStyle=orthogonalEdgeStyle;html=1;exitX=0.5;exitY=1;exitDx=0;exitDy=0;entryX=0.5;entryY=0;entryDx=0;entryDy=0;fontFamily=Courier New;fontSize=14;fontColor=#FFFFFF;curved=1;fontStyle=1" parent="1" source="22" target="14" edge="1">
                    <mxGeometry x="-0.1071" relative="1" as="geometry">
                        <Array as="points">
                            <mxPoint x="740" y="-250"/>
                            <mxPoint x="740" y="30"/>
                            <mxPoint x="670" y="30"/>
                        </Array>
                        <mxPoint as="offset"/>
                    </mxGeometry>
                </mxCell>
                <mxCell id="31" style="edgeStyle=orthogonalEdgeStyle;html=1;exitX=0.5;exitY=1;exitDx=0;exitDy=0;entryX=0.5;entryY=0;entryDx=0;entryDy=0;fontFamily=Courier New;fontSize=14;fontColor=#FFFFFF;curved=1;fontStyle=1" parent="1" source="23" target="14" edge="1">
                    <mxGeometry relative="1" as="geometry"/>
                </mxCell>
                <mxCell id="29" value="regolith.sway.enable" style="edgeStyle=orthogonalEdgeStyle;html=1;exitX=0.5;exitY=1;exitDx=0;exitDy=0;fontFamily=Courier New;fontSize=14;fontColor=#FFFFFF;curved=1;fontStyle=1" parent="1" source="24" edge="1">
                    <mxGeometry x="-0.8636" relative="1" as="geometry">
                        <mxPoint x="670" y="210" as="targetPoint"/>
                        <Array as="points">
                            <mxPoint x="630" y="40"/>
                            <mxPoint x="700" y="40"/>
                            <mxPoint x="700" y="210"/>
                        </Array>
                        <mxPoint as="offset"/>
                    </mxGeometry>
                </mxCell>
                <mxCell id="28" value="regolith.session.enable" style="edgeStyle=orthogonalEdgeStyle;html=1;exitX=0.5;exitY=1;exitDx=0;exitDy=0;entryX=0.5;entryY=0;entryDx=0;entryDy=0;fontFamily=Courier New;fontSize=14;fontColor=#FFFFFF;curved=1;fontStyle=1" parent="1" source="25" target="14" edge="1">
                    <mxGeometry relative="1" as="geometry"/>
                </mxCell>
                <mxCell id="35" value="regolith.trawl.enable" style="edgeStyle=orthogonalEdgeStyle;html=1;exitX=0.5;exitY=1;exitDx=0;exitDy=0;fontFamily=Courier New;fontSize=14;fontColor=#FFFFFF;curved=1;fontStyle=1" parent="1" source="26" edge="1">
                    <mxGeometry x="-0.6774" y="10" relative="1" as="geometry">
                        <mxPoint x="670" y="210" as="targetPoint"/>
                        <Array as="points">
                            <mxPoint x="590" y="-370"/>
                            <mxPoint x="590" y="-210"/>
                            <mxPoint x="510" y="-210"/>
                            <mxPoint x="510" y="-70"/>
                            <mxPoint x="630" y="-70"/>
                            <mxPoint x="630" y="180"/>
                            <mxPoint x="670" y="180"/>
                        </Array>
                        <mxPoint as="offset"/>
                    </mxGeometry>
                </mxCell>
                <mxCell id="36" value="regolith.inputd.enable" style="edgeStyle=orthogonalEdgeStyle;html=1;exitX=0.5;exitY=1;exitDx=0;exitDy=0;fontFamily=Courier New;fontSize=14;fontColor=#FFFFFF;curved=1;fontStyle=1" parent="1" source="37" edge="1">
                    <mxGeometry x="0.1905" y="-10" relative="1" as="geometry">
                        <mxPoint x="670" y="210" as="targetPoint"/>
                        <Array as="points">
                            <mxPoint x="1000" y="-250"/>
                            <mxPoint x="1000" y="-80"/>
                            <mxPoint x="870" y="-80"/>
                            <mxPoint x="870" y="100"/>
                            <mxPoint x="670" y="100"/>
                        </Array>
                        <mxPoint as="offset"/>
                    </mxGeometry>
                </mxCell>
            </root>
        </mxGraphModel>
    </diagram>
</mxfile>